<svg width="980" height="560" viewBox="0 0 980 560" fill="none" xmlns="http://www.w3.org/2000/svg" role="img" aria-labelledby="title desc">
  <title id="title">Зона работы АВР Систем</title>
  <desc id="desc">Схематичная карта Липецкой и Воронежской областей</desc>
  <rect width="980" height="560" fill="#fffaf3"/>
  <path d="M0 352C90 333 164 329 245 342C325 355 390 398 477 391C582 382 628 308 728 309C826 310 893 371 980 350V560H0V352Z" fill="#eff8f1"/>
  <path d="M0 62C86 83 151 102 239 85C352 63 421 4 542 21C629 33 670 83 760 82C837 82 899 50 980 34V0H0V62Z" fill="#f5f8f0"/>
  <path d="M116 95C181 143 259 169 337 172C430 175 508 145 584 163C670 184 718 246 796 270C860 290 914 284 980 262" stroke="#f2c66e" stroke-width="2" stroke-linecap="round"/>
  <path d="M64 438C145 405 206 364 284 355C377 344 437 386 526 373C627 358 684 293 781 287C847 283 912 308 980 333" stroke="#f2c66e" stroke-width="2" stroke-linecap="round"/>
  <path d="M361 0C345 64 352 119 386 173C425 233 493 260 522 330C548 394 529 463 551 560" stroke="#cde7f6" stroke-width="7" stroke-linecap="round" opacity=".72"/>
  <path d="M745 0C725 91 734 153 773 226C812 298 880 348 895 444C901 483 897 522 887 560" stroke="#cde7f6" stroke-width="7" stroke-linecap="round" opacity=".72"/>
  <path d="M322 86L355 51L407 42L447 61L486 43L527 70L543 118L588 136L570 181L595 223L566 266L507 265L469 302L414 292L373 313L330 282L277 292L245 250L265 202L239 166L276 127L322 86Z" fill="#ffe1bd" stroke="#ff7a00" stroke-width="3" stroke-linejoin="round"/>
  <path d="M441 287L501 262L558 284L607 267L665 295L690 346L754 359L793 410L769 472L708 477L672 522L614 504L552 524L505 487L449 496L401 450L414 388L378 346L441 287Z" fill="#ffe1bd" stroke="#ff7a00" stroke-width="3" stroke-linejoin="round"/>
  <path d="M421 174C456 190 495 216 529 246" stroke="#f2b657" stroke-width="2" stroke-linecap="round"/>
  <path d="M496 358C548 352 606 345 666 348" stroke="#f2b657" stroke-width="2" stroke-linecap="round"/>
  <path d="M473 162C466 199 458 232 447 267" stroke="#f2b657" stroke-width="2" stroke-linecap="round"/>
  <path d="M496 314C494 361 494 405 501 453" stroke="#f2b657" stroke-width="2" stroke-linecap="round"/>
  <g fill="#11151d" font-family="Inter, Arial, sans-serif">
    <text x="446" y="171" font-size="34" font-weight="800" text-anchor="middle">Липецк</text>
    <text x="492" y="352" font-size="34" font-weight="800" text-anchor="middle">Воронеж</text>
    <text x="300" y="135" font-size="20" font-weight="650">Елец</text>
    <text x="520" y="123" font-size="20" font-weight="650">Грязи</text>
    <text x="570" y="184" font-size="20" font-weight="650">Усмань</text>
    <text x="403" y="282" font-size="20" font-weight="650">Рамонь</text>
    <text x="530" y="381" font-size="20" font-weight="650">Новая Усмань</text>
    <text x="456" y="443" font-size="20" font-weight="650">Павловск</text>
    <text x="654" y="412" font-size="20" font-weight="650">Борисоглебск</text>
    <text x="470" y="508" font-size="20" font-weight="650">Россошь</text>
    <text x="96" y="348" font-size="25" font-weight="750" opacity=".56">Курск</text>
    <text x="114" y="500" font-size="25" font-weight="750" opacity=".56">Белгород</text>
    <text x="756" y="84" font-size="24" font-weight="750" opacity=".56">Мичуринск</text>
    <text x="838" y="340" font-size="24" font-weight="750" opacity=".56">Балашов</text>
  </g>
  <g fill="#fff" stroke="#11151d" stroke-width="2">
    <circle cx="447" cy="181" r="5"/>
    <circle cx="493" cy="362" r="5"/>
    <circle cx="293" cy="148" r="4"/>
    <circle cx="558" cy="134" r="4"/>
    <circle cx="611" cy="197" r="4"/>
    <circle cx="435" cy="293" r="4"/>
    <circle cx="514" cy="394" r="4"/>
    <circle cx="495" cy="457" r="4"/>
    <circle cx="707" cy="424" r="4"/>
    <circle cx="510" cy="522" r="4"/>
  </g>
  <rect x="520" y="468" width="46" height="24" rx="4" fill="#3b82f6"/>
  <text x="543" y="486" fill="white" font-size="17" font-family="Inter, Arial, sans-serif" font-weight="800" text-anchor="middle">М-4</text>
  <rect x="770" y="384" width="43" height="24" rx="4" fill="#16a34a"/>
  <text x="792" y="402" fill="white" font-size="17" font-family="Inter, Arial, sans-serif" font-weight="800" text-anchor="middle">Е38</text>
</svg>
